<?xml version="1.0" encoding="utf-8"?>
<!-- Generator: Adobe Illustrator 22.0.1, SVG Export Plug-In . SVG Version: 6.00 Build 0)  -->
<svg version="1.1" id="Layer_1" xmlns="http://www.w3.org/2000/svg" xmlns:xlink="http://www.w3.org/1999/xlink" x="0px" y="0px"
	 viewBox="0 0 210 210" style="enable-background:new 0 0 210 210;" xml:space="preserve">
<style type="text/css">
	.st0{opacity:0.89;fill:#9D9D9D;enable-background:new    ;}
	.st1{fill:#EBEBEB;}
	.st2{fill:url(#SVGID_1_);stroke:#9D9D9D;stroke-width:2;stroke-miterlimit:10;}
	.st3{fill:#FFFFFF;}
</style>
<g id="_x23_9d9d9de4">
	<path class="st0" d="M45.5,25.5C59.7,11.3,79,2.4,99,0.7c16.6-1.5,33.7,2,48.3,10c15.8,8.5,28.8,22.1,36.7,38.3
		c8.7,17.7,11,38.4,6.6,57.6c-4.4,20-15.6,37.8-29.3,52.7c-19.9,21.6-44.9,37.7-71.1,50.7h-1c-0.1-9,0.2-18-0.1-27
		C89,176.5,84,170.9,77.9,169c-20.8-7.2-38.5-22.8-48.4-42.5c-8-15.8-11.1-34-8.6-51.5C23.4,56.4,32.2,38.7,45.5,25.5 M91.3,3.2
		C71.7,6.6,53.5,17.5,40.8,32.8C28.2,48.2,21.1,68.1,21.6,88c0,17.6,5.8,35.1,16.2,49.3c10,13.6,23.9,24.5,39.9,30.1
		c6.3,2,12,7.1,12.8,14c0.7,8.7-0.2,17.4,0.5,26.1c5.5-2.1,10.6-4.9,15.8-7.8c22.1-12.6,42.9-28.1,59.2-47.8
		c12.8-15.5,22.4-34.1,24.9-54.2c2.9-22.2-3.7-45.3-17.4-63C154.6,10.1,121.7-2.9,91.3,3.2z"/>
</g>
<g id="_x23_ebebebff">
	<path class="st1" d="M91.3,3.2c30.4-6.1,63.3,6.9,82,31.4c13.7,17.6,20.2,40.8,17.4,63c-2.5,20.1-12.1,38.8-24.9,54.2
		c-16.3,19.7-37.1,35.2-59.2,47.8c-5.1,2.9-10.3,5.7-15.8,7.8c-0.6-8.7,0.3-17.4-0.5-26.1c-0.8-6.8-6.5-12-12.8-14
		c-16-5.6-29.9-16.5-39.9-30.1C27.4,123.1,21.5,105.6,21.6,88c-0.4-19.9,6.6-39.8,19.3-55.2C53.5,17.5,71.7,6.6,91.3,3.2
		 M100.4,12.4c-19.8,1.4-38.7,11.3-51.3,26.6C38.3,51.8,32.2,68.3,31.9,85c-0.4,16.5,4.8,33.1,15,46.1c9.3,12.4,22.6,22,37.5,26.5
		c17.4,5.4,36.9,4.1,53.4-3.8c15.1-7,27.6-19.2,35-34.1c9.1-18,10.3-39.8,3.3-58.8c-5.1-14.4-15.2-26.6-27.5-35.5
		C134.7,15.7,117.3,11.1,100.4,12.4z"/>
</g>
<g id="_x23_ffffffff">
</g>
<g id="_x23_849aa5ff">
</g>
<g id="_x23_4e626bff">
</g>
<g id="_x23_f3f3f3ff">
</g>
<g id="_x23_6c8794ff">
</g>
<g id="_x23_26eab9ff">
</g>
<g id="_x23_dddedeff">
</g>
<linearGradient id="SVGID_1_" gradientUnits="userSpaceOnUse" x1="32.2588" y1="86.116" x2="181.4119" y2="86.116">
	<stop  offset="3.370800e-02" style="stop-color:#1670B9"/>
	<stop  offset="1" style="stop-color:#073F7A"/>
</linearGradient>
<circle class="st2" cx="106.8" cy="86.1" r="74.6"/>
<g>
	<g>
		<g>
			<g>
				<path class="st3" d="M60.4,58.4c-1.5,2.1-4.9,7.5-4.9,10.4c0,3.8,3.1,6.8,6.8,6.8s6.8-3.1,6.8-6.8c0-2.9-3.5-8.2-4.9-10.4
					C63.3,57.2,61.2,57.2,60.4,58.4z"/>
				<path class="st3" d="M163.7,97.6c0.9-0.9,0.9-2.3,0-3.2l-7.5-7.5l2.7-2.7c3.5-3.5,3.5-9.3,0-12.8l-14.2-14.2
					c0.8-1.3,1.2-2.8,1.2-4.3c0-2.3-0.9-4.5-2.5-6.1l-3.8-3.8c-2.5-2.5-6.1-3.2-9.4-1.9L112.7,48l-8-8c-0.9-0.9-2.3-0.9-3.2,0
					l-0.1,0.1c-4.9-4.2-13.2-9.8-23-9.8c-13.3,0-21.6,5.5-21.9,5.7c-1,0.7-1.3,2.1-0.6,3.1l5,7.5c0.7,1,2.1,1.3,3.1,0.6
					c0.1,0,5.5-3.4,14.4-3.4c5.5,0,10.6,3.4,13.6,5.9c-0.4,0.8-0.2,1.8,0.5,2.5l8.4,8.4v9.9c0,2.4,1,4.7,2.7,6.4l25,25
					c1.7,1.7,4,2.7,6.4,2.7c1.5,0,2.9-0.4,4.2-1.1l7.8,7.8c0.4,0.4,1,0.7,1.6,0.7c0.6,0,1.2-0.2,1.6-0.7l0.3-0.3
					c-1.5,8.3-8.7,14.6-17.5,14.6h-11.7c-1.3,0-2.3,1-2.3,2.3v9.1c0,1.3,1,2.3,2.3,2.3h11.7c17.3,0,31.4-14.1,31.4-31.4
					c0-3-0.8-5.9-2.3-8.4L163.7,97.6z M129.2,66.4l7.8,7.8c-2.1,0.8-4.5,0.4-6.2-1.3l-7.5-7.5L129.2,66.4z M134.8,89L115,69.2
					l2.1-3.6l10.4,10.4c2,2,4.6,3,7.3,3c1.9,0,3.8-0.5,5.5-1.6l3,3L134.8,89z"/>
			</g>
		</g>
	</g>
	<g>
	</g>
	<g>
	</g>
	<g>
	</g>
	<g>
	</g>
	<g>
	</g>
	<g>
	</g>
	<g>
	</g>
	<g>
	</g>
	<g>
	</g>
	<g>
	</g>
	<g>
	</g>
	<g>
	</g>
	<g>
	</g>
	<g>
	</g>
	<g>
	</g>
</g>
</svg>
